# xmcd CD database file
#
# Track frame offsets:
#	150
#	26852
#	40004
#	73065
#	110448
#	126299
#	142047
#	165810
#	181787
#	192479
#	210858
#
# Disc length: 3047 seconds
#
# Revision: 0
# Processed by: cddbd v1.5.1PL2 Copyright (c) Steve Scherf et al.
# Submitted via: CDex 1.51
#
DISCID=950be50b
DTITLE=Ray Perez - Anabacoa
DYEAR=2000
DGENRE=Salsa
TTITLE0=Canto A Un Sonero (Los Dementes)
TTITLE1=Yo Sin Ti (Los Calvos)
TTITLE2=Canto A Madeira (Su Orquesta)
TTITLE3=Trigueño Cintura (Su Orquesta)
TTITLE4=Moliendo Café (Los Calvos)
TTITLE5=Como Me Voy A Reir (Su Orquesta)
TTITLE6=Anabacoa (Su Orquesta)
TTITLE7=Este Si Es Cheque (Su Orquesta)
TTITLE8=Hoculele Navideño (Los Kenya)
TTITLE9=Yo Canto Guaguanco (Los Dementes)
TTITLE10=Fui Tu Amante (Los Dementes)
EXTD=YEAR: 2000
EXTT0=
EXTT1=
EXTT2=
EXTT3=
EXTT4=
EXTT5=
EXTT6=
EXTT7=
EXTT8=
EXTT9=
EXTT10=
PLAYORDER=
